<?xml version="1.0" encoding="utf-8"?>
<!-- Generator: Adobe Illustrator 16.0.0, SVG Export Plug-In . SVG Version: 6.00 Build 0)  -->
<!DOCTYPE svg PUBLIC "-//W3C//DTD SVG 1.1//EN" "http://www.w3.org/Graphics/SVG/1.1/DTD/svg11.dtd">
<svg version="1.1" xmlns="http://www.w3.org/2000/svg" xmlns:xlink="http://www.w3.org/1999/xlink" x="0px" y="0px"
	 width="83.748px" height="15.2px" viewBox="0 0 83.748 15.2" enable-background="new 0 0 83.748 15.2" xml:space="preserve">
<g id="New_Layer">
	<polygon fill-rule="evenodd" clip-rule="evenodd" fill="#67BEB7" points="3.06,15.2 4.36,9.581 0,5.801 5.76,5.301 8,0 
		10.239,5.301 15.999,5.801 11.641,9.581 12.94,15.2 8,12.221 	"/>
	<polygon fill-rule="evenodd" clip-rule="evenodd" fill="#365265" points="20.059,15.2 21.359,9.581 16.999,5.801 22.759,5.301 
		24.999,0 27.238,5.301 32.998,5.801 28.64,9.581 29.939,15.2 24.999,12.221 	"/>
	<polygon fill-rule="evenodd" clip-rule="evenodd" fill="#365265" points="36.811,15.2 38.109,9.581 33.75,5.801 39.51,5.301 
		41.75,0 43.989,5.301 49.749,5.801 45.391,9.581 46.69,15.2 41.75,12.221 	"/>
	<polygon fill-rule="evenodd" clip-rule="evenodd" fill="#365265" points="53.809,15.2 55.109,9.581 50.749,5.801 56.509,5.301 
		58.749,0 60.988,5.301 66.748,5.801 62.39,9.581 63.689,15.2 58.749,12.221 	"/>
	<polygon fill-rule="evenodd" clip-rule="evenodd" fill="#365265" points="70.809,15.2 72.109,9.581 67.749,5.801 73.509,5.301 
		75.749,0 77.988,5.301 83.748,5.801 79.39,9.581 80.689,15.2 75.749,12.221 	"/>
</g>
<g id="MasterLayer_1">
</g>
</svg>
